<?xml version="1.0" encoding="utf-8"?>
<!-- Generator: Adobe Illustrator 24.0.1, SVG Export Plug-In . SVG Version: 6.00 Build 0)  -->
<svg version="1.1" id="Layer_1" xmlns="http://www.w3.org/2000/svg" xmlns:xlink="http://www.w3.org/1999/xlink" x="0px" y="0px"
	 viewBox="0 0 78 18" style="enable-background:new 0 0 78 18;" xml:space="preserve">
<style type="text/css">
	.st0{fillRule:evenodd;clip-rule:evenodd;fill:#177EFF;}
	.st1{fill:#177EFF;}
</style>
<g>
	<path class="st0" d="M8.9,5.3h0.5h1.2H19V3c0-1.5-1.2-2.8-2.7-2.8H6.3v2.3C6.3,4.1,7.5,5.3,8.9,5.3z M2.7,17.8h0.5h1.2h8.4v-2.3
		c0-1.5-1.2-2.8-2.7-2.8H0V15C0,16.6,1.2,17.8,2.7,17.8z M9.4,11.6c-0.1,0-0.2,0-0.3,0H0V9.2c0-1.5,1.2-2.8,2.7-2.8h7.5c0,0,0,0,0,0
		c0,0,0,0,0,0H19v2.4c0,1.5-1.2,2.8-2.7,2.8H9.4z"/>
	<path class="st1" d="M33.5,5.7L28.9,12h4.8v2h-7.7v-1.4l4.6-6.3h-4.4v-2h7.3V5.7z"/>
	<path class="st1" d="M50.8,0.2v2c-1.6-0.1-2.3,0.5-2.3,1.9v0.2h2.3v2h-2.3V14h-2.1V6.3h-1.5v-2h1.5V4.1c0-1.3,0.4-2.3,1.2-3
		C48.3,0.4,49.4,0.1,50.8,0.2z"/>
	<path class="st1" d="M57,4.3v2h-2.5v4.6c0,0.4,0.1,0.7,0.3,0.9c0.2,0.2,0.5,0.3,0.8,0.3c0.4,0,0.8,0,1.4,0V14
		c-1.6,0.2-2.8,0.1-3.5-0.4c-0.7-0.5-1.1-1.3-1.1-2.6V6.3v-2V2.2l2.1-0.6v2.7L57,4.3L57,4.3z"/>
	<path class="st1" d="M61.1,4.3H59V14h2.1V4.3z"/>
	<path class="st1" d="M68.8,0.2v2c-1.6-0.1-2.3,0.5-2.3,1.9v0.2h2.3v2h-2.3V14h-2.1V6.3h-1.5v-2h1.5V4.1c0-1.3,0.4-2.3,1.2-3
		C66.2,0.4,67.3,0.1,68.8,0.2z"/>
	<path class="st1" d="M73.2,11.3l2.5-7H78l-3.8,10c-1,2.5-2.6,3.7-4.8,3.6v-2c0.7,0,1.2-0.1,1.6-0.4c0.4-0.3,0.8-0.8,1-1.5l0.1-0.2
		l-4.2-9.5h2.3L73.2,11.3z"/>
	<path class="st1" d="M61.1,3.2c0,0,0.4,0-0.5,0S59,2.5,59,1.5c0-1,0-0.5,0-0.5h2.1V3.2z"/>
	<path class="st1" d="M39.2,4.1c-2.7,0-4.9,2.3-4.9,5.1c0,2.8,2.2,5.1,4.9,5.1c2.7,0,4.9-2.3,4.9-5.1C44.1,6.3,41.9,4.1,39.2,4.1z
		 M39.2,12c-1.5,0-2.8-1.3-2.8-2.9c0-1.6,1.2-2.9,2.8-2.9c1.5,0,2.8,1.3,2.8,2.9C42,10.7,40.8,12,39.2,12z"/>
</g>
</svg>
