<?xml version="1.0" encoding="utf-8"?>
<!-- Generator: Adobe Illustrator 24.0.1, SVG Export Plug-In . SVG Version: 6.00 Build 0)  -->
<svg version="1.1" id="Layer_1" xmlns="http://www.w3.org/2000/svg" xmlns:xlink="http://www.w3.org/1999/xlink" x="0px" y="0px"
	 viewBox="0 0 24 24" style="enable-background:new 0 0 24 24;" xml:space="preserve">
<style type="text/css">
	.st0{opacity:0.4;fill:#177EFF;enable-background:new    ;}
	.st1{opacity:0.6;fill:#177EFF;enable-background:new    ;}
	.st2{fill:#177EFF;}
</style>
<g>
	<path class="st0" d="M22,16.5v3c0,1.5-1,2.5-2.5,2.5H6c0.4,0,0.8-0.1,1.2-0.2c0.1,0,0.2-0.1,0.3-0.1c0.3-0.1,0.7-0.3,1-0.6
		c0.1-0.1,0.2-0.2,0.3-0.2l0,0l6.8-6.8h3.8C21,14,22,15,22,16.5z"/>
	<path class="st1" d="M18.4,11.3L15.7,14l-6.8,6.8C9.6,20.1,10,19.1,10,18V8.3l2.7-2.7c1.1-1.1,2.5-1.1,3.5,0l2.1,2.1
		C19.4,8.8,19.4,10.2,18.4,11.3z"/>
	<path class="st2" d="M7.5,2h-3C3,2,2,3,2,4.5V18c0,0.3,0,0.5,0.1,0.8c0,0.1,0.1,0.3,0.1,0.4c0,0.1,0.1,0.3,0.2,0.4c0,0,0,0,0,0
		c0,0,0,0,0,0c0.1,0.3,0.3,0.5,0.5,0.8c0.1,0.1,0.2,0.2,0.3,0.4C3.3,21,3.4,21,3.5,21.1l0,0c0.2,0.2,0.5,0.4,0.8,0.5c0,0,0,0,0,0
		c0.2,0.1,0.3,0.1,0.5,0.2c0.1,0,0.3,0.1,0.4,0.1C5.5,22,5.7,22,6,22c0.4,0,0.8-0.1,1.2-0.2c0.1,0,0.2-0.1,0.3-0.1
		c0.3-0.1,0.7-0.3,1-0.6c0.1-0.1,0.2-0.2,0.3-0.2l0,0C9.6,20.1,10,19.1,10,18V4.5C10,3,9,2,7.5,2z M6,19.5c-0.8,0-1.5-0.7-1.5-1.5
		s0.7-1.5,1.5-1.5s1.5,0.7,1.5,1.5S6.8,19.5,6,19.5z"/>
</g>
</svg>
